<!-- Generator: Adobe Illustrator 18.0.0, SVG Export Plug-In  -->
<svg version="1.1"
	 xmlns="http://www.w3.org/2000/svg" xmlns:xlink="http://www.w3.org/1999/xlink" xmlns:a="http://ns.adobe.com/AdobeSVGViewerExtensions/3.0/"
	 x="0px" y="0px" width="295.3px" height="276px" viewBox="0 0 295.3 276" enable-background="new 0 0 295.3 276"
	 xml:space="preserve">
<defs>
</defs>
<g>
	<path fill="#E56125" d="M29.8,7.3L29.8,7.3c0-0.5-0.1-0.8-0.4-1c-0.3-0.2-0.7-0.3-1.3-0.3H26v2.8h2.1c0.5,0,0.9-0.1,1.2-0.4
		C29.7,8,29.8,7.7,29.8,7.3z"/>
	<path fill="#E56125" d="M64,7.3L64,7.3c0-0.5-0.1-0.8-0.4-1c-0.3-0.2-0.7-0.3-1.3-0.3h-2.1v2.8h2.1c0.5,0,0.9-0.1,1.2-0.4
		C63.9,8,64,7.7,64,7.3z"/>
	<polygon fill="#E56125" points="17.2,9.5 20,9.5 18.6,6.3 	"/>
	<path fill="#E56125" d="M11.4,6.3C11,6,10.6,5.9,10.1,5.9H8.4v3h1.7c0.5,0,1-0.1,1.3-0.4c0.3-0.3,0.5-0.6,0.5-1.1v0
		C11.8,6.9,11.7,6.5,11.4,6.3z"/>
	<path fill="#E56125" d="M92.9,6.3c-0.3-0.2-0.8-0.4-1.3-0.4h-1.7v3h1.7c0.5,0,1-0.1,1.3-0.4c0.3-0.3,0.5-0.6,0.5-1.1v0
		C93.4,6.9,93.2,6.5,92.9,6.3z"/>
	<path fill="#E56125" d="M1.1,0v17.6H110V0H1.1z M13.3,7.4c0,0.5-0.1,0.9-0.3,1.2s-0.4,0.6-0.7,0.9c-0.3,0.2-0.6,0.4-1,0.5
		c-0.4,0.1-0.8,0.2-1.3,0.2H8.4v2.6H7V4.6h3.2c0.5,0,0.9,0.1,1.3,0.2c0.4,0.1,0.7,0.3,1,0.6c0.3,0.2,0.5,0.5,0.6,0.9
		C13.2,6.6,13.3,6.9,13.3,7.4L13.3,7.4z M21.4,12.8l-0.8-2h-3.9l-0.8,2h-1.5L18,4.5h1.3l3.6,8.2H21.4z M29.8,12.8l-2-2.8h0H26v2.8
		h-1.4V4.6h3.6c0.5,0,1,0.1,1.4,0.2c0.4,0.1,0.7,0.3,1,0.6c0.2,0.2,0.4,0.5,0.5,0.8c0.1,0.3,0.2,0.6,0.2,1v0c0,0.3,0,0.6-0.1,0.9
		c-0.1,0.3-0.2,0.5-0.4,0.7c-0.2,0.2-0.4,0.4-0.6,0.5c-0.2,0.1-0.5,0.3-0.8,0.3l2.2,3.1H29.8z M39.4,5.9h-2.6v6.8h-1.4V5.9h-2.6V4.6
		h6.6V5.9z M48.3,12.8h-1.2L42.6,7v5.8h-1.4V4.6h1.3l4.4,5.7V4.6h1.4V12.8z M56.8,12.8h-6.1V4.6h6v1.3h-4.6V8h4.1v1.3h-4.1v2.2h4.7
		V12.8z M64.1,12.8l-2-2.8h0h-1.8v2.8h-1.4V4.6h3.6c0.5,0,1,0.1,1.4,0.2c0.4,0.1,0.7,0.3,1,0.6c0.2,0.2,0.4,0.5,0.5,0.8
		c0.1,0.3,0.2,0.6,0.2,1v0c0,0.3,0,0.6-0.1,0.9c-0.1,0.3-0.2,0.5-0.4,0.7c-0.2,0.2-0.4,0.4-0.6,0.5c-0.2,0.1-0.5,0.3-0.8,0.3
		l2.2,3.1H64.1z M73.3,10.5c0,0.4-0.1,0.7-0.2,1c-0.1,0.3-0.3,0.6-0.6,0.8c-0.3,0.2-0.6,0.4-0.9,0.5c-0.4,0.1-0.8,0.2-1.2,0.2
		c-0.6,0-1.2-0.1-1.8-0.3c-0.6-0.2-1.1-0.5-1.6-1l0.9-1c0.4,0.3,0.8,0.6,1.2,0.8c0.4,0.2,0.9,0.3,1.4,0.3c0.4,0,0.8-0.1,1.1-0.3
		c0.3-0.2,0.4-0.4,0.4-0.7v0c0-0.1,0-0.3-0.1-0.4c-0.1-0.1-0.1-0.2-0.3-0.3c-0.1-0.1-0.3-0.2-0.6-0.3c-0.2-0.1-0.5-0.2-0.9-0.3
		c-0.4-0.1-0.8-0.2-1.2-0.3S68.3,8.7,68,8.5c-0.2-0.2-0.4-0.4-0.5-0.7c-0.1-0.3-0.2-0.6-0.2-1v0c0-0.4,0.1-0.7,0.2-1
		c0.1-0.3,0.3-0.5,0.6-0.7c0.2-0.2,0.5-0.4,0.9-0.5c0.3-0.1,0.7-0.2,1.1-0.2c0.6,0,1.1,0.1,1.6,0.3s0.9,0.4,1.3,0.8l-0.8,1.1
		c-0.4-0.3-0.7-0.5-1.1-0.6c-0.4-0.1-0.7-0.2-1.1-0.2c-0.4,0-0.7,0.1-1,0.3c-0.2,0.2-0.4,0.4-0.4,0.7v0c0,0.2,0,0.3,0.1,0.4
		c0.1,0.1,0.2,0.2,0.3,0.3c0.1,0.1,0.3,0.2,0.6,0.3c0.3,0.1,0.6,0.2,1,0.3c0.4,0.1,0.8,0.2,1.1,0.4c0.3,0.1,0.6,0.3,0.8,0.5
		c0.2,0.2,0.4,0.4,0.5,0.7C73.3,9.8,73.3,10.1,73.3,10.5L73.3,10.5z M82.1,12.8h-1.4V9.3h-3.9v3.4h-1.4V4.6h1.4V8h3.9V4.6h1.4V12.8z
		 M86,12.8h-1.4V4.6H86V12.8z M94.8,7.4c0,0.5-0.1,0.9-0.3,1.2c-0.2,0.3-0.4,0.6-0.7,0.9c-0.3,0.2-0.6,0.4-1,0.5
		c-0.4,0.1-0.8,0.2-1.3,0.2h-1.6v2.6h-1.4V4.6h3.2c0.5,0,0.9,0.1,1.3,0.2c0.4,0.1,0.7,0.3,1,0.6c0.3,0.2,0.5,0.5,0.6,0.9
		C94.7,6.6,94.8,6.9,94.8,7.4L94.8,7.4z M102.4,10.5c0,0.4-0.1,0.7-0.2,1c-0.1,0.3-0.3,0.6-0.6,0.8c-0.3,0.2-0.6,0.4-0.9,0.5
		c-0.4,0.1-0.8,0.2-1.2,0.2c-0.6,0-1.2-0.1-1.8-0.3c-0.6-0.2-1.1-0.5-1.6-1l0.9-1c0.4,0.3,0.8,0.6,1.2,0.8c0.4,0.2,0.9,0.3,1.4,0.3
		c0.4,0,0.8-0.1,1.1-0.3c0.3-0.2,0.4-0.4,0.4-0.7v0c0-0.1,0-0.3-0.1-0.4c-0.1-0.1-0.1-0.2-0.3-0.3c-0.1-0.1-0.3-0.2-0.6-0.3
		c-0.2-0.1-0.5-0.2-0.9-0.3c-0.4-0.1-0.8-0.2-1.2-0.3s-0.6-0.3-0.9-0.5c-0.2-0.2-0.4-0.4-0.5-0.7c-0.1-0.3-0.2-0.6-0.2-1v0
		c0-0.4,0.1-0.7,0.2-1c0.1-0.3,0.3-0.5,0.6-0.7c0.2-0.2,0.5-0.4,0.9-0.5c0.3-0.1,0.7-0.2,1.1-0.2c0.6,0,1.1,0.1,1.6,0.3
		c0.5,0.2,0.9,0.4,1.3,0.8l-0.8,1.1c-0.4-0.3-0.7-0.5-1.1-0.6c-0.4-0.1-0.7-0.2-1.1-0.2c-0.4,0-0.7,0.1-1,0.3
		c-0.2,0.2-0.4,0.4-0.4,0.7v0c0,0.2,0,0.3,0.1,0.4c0.1,0.1,0.2,0.2,0.3,0.3c0.1,0.1,0.3,0.2,0.6,0.3c0.3,0.1,0.6,0.2,1,0.3
		c0.4,0.1,0.8,0.2,1.1,0.4c0.3,0.1,0.6,0.3,0.8,0.5c0.2,0.2,0.4,0.4,0.5,0.7C102.3,9.8,102.4,10.1,102.4,10.5L102.4,10.5z"/>
</g>
<g>
	<g>
		
			<line fill="none" stroke="#E56125" stroke-width="2.9198" stroke-linecap="round" stroke-miterlimit="10" x1="107" y1="9" x2="108.8" y2="9"/>
		
			<path fill="none" stroke="#E56125" stroke-width="2.9198" stroke-linecap="round" stroke-miterlimit="10" stroke-dasharray="3.6431,6.5576" d="
			M115.4,9h51.7c30.8,0,55.7,24.9,55.7,55.7s-24.9,55.7-55.7,55.7c0,0-10.8,1.9-22.5-8.1c-14.7-12.7-32.1-22.9-53-22.9
			c-40.1,0-72.7,32.5-72.7,72.7s32.5,72.7,72.7,72.7c40.1,0,72.7-32.5,72.7-72.7l0-0.9c0-24.6,19.9-44.5,44.5-44.5
			c24.6,0,44.5,19.9,44.5,44.5s-19.9,44.5-44.5,44.5h-13.7c0,0-8.3,0.1-8.3,8.6c0,4.8,0,10.5,0,14.5"/>
		<path fill="none" stroke="#E56125" stroke-width="2.9198" stroke-linecap="round" stroke-miterlimit="10" d="M186.8,231.9
			c0,1.1,0,1.8,0,1.8"/>
	</g>
</g>
<text transform="matrix(1 0 0 1 59.916 48.6721)" fill="#E56125" font-family="'GothamMedium'" font-size="11.6791">STATE</text>
<text transform="matrix(1 0 0 1 0 251.4748)" fill="#E56125" font-family="'GothamMedium'" font-size="11.6791">FEDERAL</text>
<text transform="matrix(1 0 0 1 251.5874 118.0157)" fill="#E56125" font-family="'GothamMedium'" font-size="11.6791">LOCAL</text>
<g>
	<polygon fill="#E56125" points="180.8,265.1 183.6,265.1 182.2,261.8 	"/>
	<path fill="#E56125" d="M168.6,247.8c-0.3-0.2-0.8-0.4-1.3-0.4h-1.7v3h1.7c0.5,0,1-0.1,1.3-0.4c0.3-0.3,0.5-0.6,0.5-1.1v0
		C169.1,248.4,169,248,168.6,247.8z"/>
	<path fill="#E56125" d="M178.2,248.2c-0.2-0.3-0.5-0.5-0.9-0.6c-0.3-0.2-0.7-0.2-1.1-0.2c-0.4,0-0.8,0.1-1.1,0.2
		c-0.3,0.2-0.6,0.4-0.9,0.6c-0.2,0.3-0.4,0.6-0.6,0.9s-0.2,0.7-0.2,1.1v0c0,0.4,0.1,0.8,0.2,1.1c0.1,0.4,0.3,0.7,0.6,0.9
		c0.2,0.3,0.5,0.5,0.9,0.6c0.3,0.2,0.7,0.2,1.1,0.2s0.8-0.1,1.1-0.2c0.3-0.2,0.6-0.4,0.9-0.6s0.4-0.6,0.6-0.9s0.2-0.7,0.2-1.1v0
		c0-0.4-0.1-0.8-0.2-1.1S178.5,248.4,178.2,248.2z"/>
	<path fill="#E56125" d="M152.8,238.7V276H221v-37.3H152.8z M190.2,246.1h1.4v8.2h-1.4V246.1z M182.6,246.1h1.4v6.9h4.3v1.3h-5.7
		V246.1z M167.1,267.6c-0.2,0.2-0.5,0.3-0.7,0.5c-0.3,0.1-0.6,0.2-0.9,0.3s-0.7,0.1-1,0.1c-0.6,0-1.2-0.1-1.7-0.3
		c-0.5-0.2-0.9-0.5-1.3-0.9s-0.7-0.8-0.9-1.3c-0.2-0.5-0.3-1.1-0.3-1.6v0c0-0.6,0.1-1.1,0.3-1.6s0.5-1,0.9-1.3
		c0.4-0.4,0.8-0.7,1.3-0.9c0.5-0.2,1.1-0.3,1.7-0.3c0.4,0,0.7,0,1,0.1c0.3,0.1,0.6,0.1,0.8,0.3c0.3,0.1,0.5,0.2,0.7,0.4
		c0.2,0.2,0.4,0.3,0.6,0.5l-0.9,1.1c-0.3-0.3-0.7-0.5-1-0.7c-0.4-0.2-0.8-0.3-1.2-0.3c-0.4,0-0.7,0.1-1.1,0.2
		c-0.3,0.2-0.6,0.4-0.9,0.6c-0.2,0.3-0.4,0.6-0.6,0.9s-0.2,0.7-0.2,1.1v0c0,0.4,0.1,0.8,0.2,1.1c0.1,0.4,0.3,0.7,0.6,0.9
		s0.5,0.5,0.9,0.6c0.3,0.2,0.7,0.2,1.1,0.2c0.5,0,0.9-0.1,1.3-0.3c0.4-0.2,0.7-0.4,1.1-0.8l0.9,0.9
		C167.5,267.2,167.3,267.4,167.1,267.6z M167.3,251.7h-1.6v2.6h-1.4v-8.2h3.2c0.5,0,0.9,0.1,1.3,0.2c0.4,0.1,0.7,0.3,1,0.6
		c0.3,0.2,0.5,0.5,0.6,0.9s0.2,0.7,0.2,1.1v0c0,0.5-0.1,0.9-0.3,1.2c-0.2,0.3-0.4,0.6-0.7,0.9c-0.3,0.2-0.6,0.4-1,0.5
		C168.2,251.6,167.7,251.7,167.3,251.7z M176.3,268.3h-1.4v-3.4h-3.9v3.4h-1.4v-8.2h1.4v3.4h3.9v-3.4h1.4V268.3z M176.2,254.4
		c-0.6,0-1.2-0.1-1.7-0.3c-0.5-0.2-1-0.5-1.3-0.9s-0.7-0.8-0.9-1.3c-0.2-0.5-0.3-1.1-0.3-1.6v0c0-0.6,0.1-1.1,0.3-1.6s0.5-1,0.9-1.3
		c0.4-0.4,0.8-0.7,1.4-0.9c0.5-0.2,1.1-0.3,1.7-0.3c0.6,0,1.2,0.1,1.7,0.3c0.5,0.2,1,0.5,1.3,0.9c0.4,0.4,0.7,0.8,0.9,1.3
		c0.2,0.5,0.3,1.1,0.3,1.6v0c0,0.6-0.1,1.1-0.3,1.6c-0.2,0.5-0.5,1-0.9,1.3s-0.8,0.7-1.4,0.9C177.4,254.3,176.9,254.4,176.2,254.4z
		 M185,268.3l-0.8-2h-3.9l-0.8,2H178l3.6-8.2h1.3l3.6,8.2H185z M195.3,268.3h-1.2l-4.5-5.8v5.8h-1.4v-8.2h1.3l4.4,5.7v-5.7h1.4
		V268.3z M194.9,253.2c-0.4-0.4-0.7-0.8-0.9-1.3c-0.2-0.5-0.3-1.1-0.3-1.6v0c0-0.6,0.1-1.1,0.3-1.6s0.5-1,0.9-1.3
		c0.4-0.4,0.8-0.7,1.3-0.9c0.5-0.2,1.1-0.3,1.7-0.3c0.4,0,0.7,0,1,0.1c0.3,0.1,0.6,0.1,0.8,0.3c0.3,0.1,0.5,0.2,0.7,0.4
		c0.2,0.2,0.4,0.3,0.6,0.5l-0.9,1.1c-0.3-0.3-0.7-0.5-1-0.7c-0.4-0.2-0.8-0.3-1.2-0.3c-0.4,0-0.7,0.1-1.1,0.2
		c-0.3,0.2-0.6,0.4-0.9,0.6c-0.2,0.3-0.4,0.6-0.6,0.9s-0.2,0.7-0.2,1.1v0c0,0.4,0.1,0.8,0.2,1.1c0.1,0.4,0.3,0.7,0.6,0.9
		s0.5,0.5,0.9,0.6c0.3,0.2,0.7,0.2,1.1,0.2c0.5,0,0.9-0.1,1.3-0.3c0.4-0.2,0.7-0.4,1.1-0.8l0.9,0.9c-0.2,0.2-0.4,0.4-0.7,0.6
		c-0.2,0.2-0.5,0.3-0.7,0.5c-0.3,0.1-0.6,0.2-0.9,0.3s-0.7,0.1-1,0.1c-0.6,0-1.2-0.1-1.7-0.3C195.7,253.9,195.3,253.6,194.9,253.2z
		 M205,267.2c-0.2,0.2-0.4,0.3-0.7,0.5c-0.2,0.2-0.5,0.3-0.8,0.4c-0.3,0.1-0.6,0.2-0.9,0.3c-0.3,0.1-0.7,0.1-1,0.1
		c-0.6,0-1.2-0.1-1.7-0.3c-0.5-0.2-1-0.5-1.3-0.9s-0.7-0.8-0.9-1.3c-0.2-0.5-0.3-1.1-0.3-1.7v0c0-0.6,0.1-1.1,0.3-1.6s0.5-1,0.9-1.3
		c0.4-0.4,0.8-0.7,1.3-0.9c0.5-0.2,1.1-0.3,1.7-0.3c0.4,0,0.7,0,1,0.1s0.6,0.1,0.8,0.2c0.2,0.1,0.5,0.2,0.7,0.3
		c0.2,0.1,0.4,0.3,0.6,0.5l-0.9,1.1c-0.2-0.1-0.3-0.3-0.5-0.4c-0.2-0.1-0.3-0.2-0.5-0.3c-0.2-0.1-0.4-0.1-0.6-0.2
		c-0.2,0-0.4-0.1-0.7-0.1c-0.4,0-0.7,0.1-1,0.2c-0.3,0.2-0.6,0.4-0.8,0.6c-0.2,0.3-0.4,0.6-0.6,0.9c-0.1,0.4-0.2,0.7-0.2,1.1v0
		c0,0.4,0.1,0.8,0.2,1.2c0.1,0.4,0.3,0.7,0.6,0.9c0.2,0.3,0.5,0.5,0.9,0.6c0.3,0.1,0.7,0.2,1.1,0.2c0.4,0,0.8-0.1,1.1-0.2
		c0.3-0.1,0.6-0.3,0.9-0.5V265h-2.1v-1.2h3.5V267.2z M206.8,254.3h-1.4v-3.2l-3.2-5h1.7l2.3,3.6l2.3-3.6h1.6l-3.2,4.9V254.3z
		 M213.3,268.3h-6.1v-8.2h6v1.3h-4.6v2.1h4.1v1.3h-4.1v2.2h4.7V268.3z"/>
</g>
<line fill="none" stroke="#E56125" stroke-width="2.1898" stroke-linecap="round" stroke-miterlimit="10" x1="24.7" y1="238.3" x2="78.5" y2="177"/>
<line fill="none" stroke="#E56125" stroke-width="2.1898" stroke-linecap="round" stroke-miterlimit="10" x1="216" y1="152.4" x2="247.4" y2="118.3"/>
<line fill="none" stroke="#E56125" stroke-width="2.1898" stroke-linecap="round" stroke-miterlimit="10" x1="156.4" y1="61.4" x2="105.3" y2="46.1"/>
</svg>
