<!-- Generator: Adobe Illustrator 18.0.0, SVG Export Plug-In  -->
<svg version="1.1"
	 xmlns="http://www.w3.org/2000/svg" xmlns:xlink="http://www.w3.org/1999/xlink" xmlns:a="http://ns.adobe.com/AdobeSVGViewerExtensions/3.0/"
	 x="0px" y="0px" width="74.8px" height="74.8px" viewBox="0 0 74.8 74.8" enable-background="new 0 0 74.8 74.8"
	 xml:space="preserve">
<defs>
</defs>
<path fill="#E56125" d="M40.3,18.6c-4.8-0.8-9.6,0.4-13.6,3.2c-8.2,5.9-10,17.3-4.1,25.5l0.2,0.2c2.9,3.8,7,6.4,11.7,7.1
	c4.8,0.8,9.6-0.4,13.6-3.2c8.2-5.9,10-17.3,4.1-25.5C49.4,21.9,45.1,19.3,40.3,18.6z M46.5,49.2c-3.4,2.4-7.5,3.4-11.6,2.7
	c-4.1-0.7-7.7-2.9-10.1-6.2c-5-7-3.4-16.7,3.5-21.7c3.4-2.4,7.5-3.4,11.6-2.7c4.1,0.7,7.7,2.9,10.1,6.3C55,34.4,53.4,44.2,46.5,49.2
	z"/>
<path fill="#E56125" d="M41.4,31.6c-0.9-0.7-1.9-1.2-3-1.4c-0.6-0.1-1.1-0.1-1.7,0c-1.7,0.2-3.2,1-4.3,2.3c-2.2,2.7-1.8,6.8,0.9,9
	c1.3,1.1,3,1.6,4.7,1.4c1.7-0.2,3.2-1,4.3-2.3c1.1-1.3,1.6-3,1.4-4.7C43.6,34.2,42.8,32.7,41.4,31.6z M40.5,39.1
	c-0.9,1.1-2.3,1.7-3.8,1.4c-0.7-0.1-1.4-0.4-1.9-0.9c-1.7-1.4-2-3.9-0.6-5.7c0.7-0.8,1.6-1.4,2.7-1.5c1-0.1,2.1,0.2,2.9,0.9
	c0.8,0.7,1.3,1.6,1.4,2.7C41.5,37.2,41.2,38.3,40.5,39.1z"/>
<path fill="#E56125" d="M69.1,43l0.2-0.9l0.9-0.3c1.1-0.3,2.2-1,3-1.9c1.1-1.3,1.7-2.9,1.6-4.6c-0.1-1.7-0.9-3.3-2.1-4.4
	c-0.9-0.8-2-1.3-3.1-1.5l-0.9-0.2l-0.3-0.9c-0.2-0.6-0.4-1.3-0.6-1.9l-0.3-0.9l0.6-0.7c0.8-0.9,1.4-1.9,1.6-3.1
	c0.7-3.5-1.5-6.9-5-7.6c-1.2-0.2-2.4-0.2-3.5,0.2l-0.9,0.3L59.6,14c-0.5-0.4-1-0.9-1.5-1.3l-0.7-0.6l0.2-0.9
	c0.3-1.2,0.2-2.4-0.2-3.5c-0.7-2.2-2.6-3.8-4.8-4.3c-1.1-0.2-2.2-0.2-3.3,0.2c-1.1,0.4-2.1,1-2.9,2l-0.6,0.7L45,6
	c-0.7-0.2-1.3-0.3-2-0.4l-0.9-0.2l-0.3-0.9c-0.3-1.1-1-2.2-1.9-3c-0.8-0.7-1.9-1.3-2.9-1.5c-2.2-0.5-4.6,0.3-6.1,2
	c-0.8,0.9-1.3,2-1.5,3.1l-0.2,0.9l-0.9,0.3c-0.6,0.2-1.2,0.4-1.9,0.6l-0.9,0.3l-0.7-0.6c-0.9-0.8-1.9-1.4-3.1-1.6
	c-3.5-0.7-6.9,1.5-7.6,5c-0.2,1.2-0.2,2.4,0.3,3.5l0.3,0.9L14,15.2c-0.4,0.5-0.9,1-1.3,1.5l-0.6,0.7l-0.9-0.2
	c-1.2-0.3-2.3-0.2-3.5,0.1c-1.6,0.5-3,1.7-3.7,3.2c-0.8,1.5-0.9,3.3-0.4,4.9c0.4,1.1,1.1,2.1,2,2.9l0.7,0.6l-0.2,0.9
	c-0.2,0.6-0.3,1.3-0.4,2l-0.2,0.9L4.6,33c-1.1,0.3-2.2,1-3,1.9c-1.1,1.3-1.7,2.9-1.6,4.6c0.1,1.7,0.9,3.3,2.1,4.4
	c0.8,0.7,1.9,1.3,3,1.5l1.1,0.2l0.3,0.9c0.2,0.6,0.4,1.3,0.6,1.9l0.3,0.9L6.8,50c-0.8,0.9-1.4,1.9-1.6,3.1c-0.7,3.5,1.5,6.9,5,7.6
	c1.2,0.2,2.4,0.2,3.5-0.2l0.9-0.3l0.7,0.6c0.5,0.5,1,0.9,1.5,1.3l0.7,0.6l-0.2,0.9c-0.3,1.2-0.2,2.4,0.1,3.5
	c0.7,2.2,2.6,3.8,4.8,4.3c1.1,0.2,2.2,0.2,3.3-0.2c1.1-0.4,2.1-1.1,2.9-2l0.6-0.7l0.9,0.2c0.7,0.2,1.3,0.3,2,0.4l0.9,0.2l0.3,0.9
	c0.3,1.1,1,2.2,1.9,3c0.8,0.7,1.9,1.3,2.9,1.5c2.2,0.5,4.6-0.3,6.1-2c0.8-0.9,1.3-2,1.5-3.2l0.2-0.9l0.9-0.3
	c0.6-0.2,1.3-0.4,1.9-0.6l0.9-0.3L50,68c0.9,0.8,1.9,1.4,3.1,1.6c3.5,0.7,6.9-1.5,7.6-5c0.2-1.2,0.2-2.4-0.2-3.5l-0.3-0.9l0.6-0.7
	c0.5-0.5,0.9-1,1.3-1.5l0.6-0.7l0.9,0.2c1.2,0.3,2.3,0.2,3.5-0.2c3.4-1.1,5.2-4.7,4.1-8.1c-0.4-1.1-1.1-2.1-2-2.9l-0.7-0.6l0.2-0.9
	C68.9,44.3,69,43.6,69.1,43z M67,40.8c-0.2,1.7-0.6,3.5-1.1,5.2l0,0.1c-0.2,0.6,0.1,1.3,0.7,1.5c1.1,0.4,1.9,1.3,2.3,2.5
	c0.2,0.6,0.3,1.3,0.1,1.9c-0.1,0.4-0.2,0.8-0.4,1.1c-0.5,1-1.3,1.7-2.3,2C65.2,55.5,64,55,63,54.4c-0.1-0.1-0.7-0.2-0.9-0.2
	c-0.2,0-0.3,0.3-0.5,0.4c-0.1,0.1-0.2,0.2-0.3,0.3c-1.1,1.5-2.3,2.9-3.6,4.1c-0.3,0.8,1.2,2.7,0.5,4.7c-0.7,2-2.6,3.7-4.7,3.3
	c-1.2-0.2-2.1-0.9-2.7-1.9c-0.2-0.3-0.5-0.5-0.8-0.6c-0.2,0-0.5,0-0.8,0.1l-0.1,0.1c-1.6,0.7-3.4,1.3-5.1,1.7
	c-0.1,0-0.2,0.1-0.4,0.1c-0.2,0.1-0.3,0.2-0.4,0.4c-0.1,0.1-0.2,0.3-0.2,0.5c0,0.1,0,0.2,0,0.4c0.2,1.2-0.2,2.3-1,3.2
	c-1,1.1-2.4,1.5-3.8,1.3c-0.7-0.1-1.3-0.5-1.9-0.9c-0.8-0.7-1.3-1.8-1.3-3l0-0.1c0-0.7-0.4-1.2-1.1-1.3c-1.8-0.2-3.7-0.6-5.5-1.1
	c0,0-0.1,0-0.1,0c-0.5-0.1-0.8,0.1-1,0.2c-0.2,0.1-0.3,0.3-0.4,0.5c-0.5,1.1-1.4,1.9-2.5,2.3c-0.7,0.2-1.4,0.3-2.1,0.1
	c-1.4-0.3-2.6-1.3-3-2.7c-0.4-1.1-0.2-2.3,0.3-3.3l0-0.1c0.3-0.5,0.2-1.2-0.3-1.6c-1.5-1.1-2.9-2.4-4.1-3.7c-0.4-0.4-1-0.5-1.5-0.2
	c-0.1,0-0.1,0.1-0.2,0.1c-0.9,0.7-2.1,1-3.3,0.8c-2.2-0.5-3.6-2.6-3.1-4.8c0.2-1.1,0.9-2.1,1.9-2.7l0.1,0c0.6-0.3,0.8-1,0.6-1.5
	c-0.7-1.7-1.3-3.5-1.7-5.3c-0.1-0.5-0.6-0.9-1.2-0.9c0,0-0.1,0-0.2,0c-1.2,0.2-2.4-0.2-3.2-1c-0.8-0.7-1.3-1.7-1.3-2.8
	c-0.1-1.1,0.3-2.1,1-2.9c0.8-0.9,1.9-1.3,3-1.3c0.7,0,1.2-0.4,1.3-1.1c0.2-1.8,0.6-3.7,1.1-5.5c0.2-0.6-0.1-1.2-0.7-1.5l-0.1,0
	c-1-0.5-1.9-1.3-2.2-2.4c-0.3-1-0.3-2.1,0.2-3.1c0.5-1,1.3-1.7,2.3-2c1.1-0.4,2.4-0.2,3.4,0.4c0.1,0.1,0.3,0.1,0.4,0.2l0.1,0
	c0.4,0.1,0.9-0.1,1.1-0.5c1.1-1.5,2.3-2.9,3.7-4.2c0.5-0.4,0.5-1.2,0.1-1.6l-0.1-0.1c-0.7-0.9-0.9-2.1-0.7-3.2
	C16.9,8.4,19,7,21.2,7.5c1.2,0.2,2.1,1,2.7,2c0.2,0.3,0.5,0.5,0.8,0.6c0.2,0,0.5,0.1,0.8-0.1l0.1,0c1.7-0.7,3.4-1.3,5.1-1.7
	c0.1,0,0.3-0.1,0.4-0.1c0.2-0.1,0.3-0.2,0.4-0.4c0.1-0.2,0.2-0.3,0.2-0.5c0-0.1,0-0.2,0-0.4c-0.2-1.2,0.2-2.4,1-3.2
	c1-1.1,2.4-1.5,3.8-1.3c0.7,0.1,1.3,0.5,1.8,0.9c0.9,0.8,1.3,1.9,1.3,3l0,0.1c0,0.1,0,0.2,0,0.3c0.1,0.5,0.6,0.9,1.1,1l0.1,0
	c1.7,0.2,3.4,0.5,5,1l0.1,0c0.6,0.2,1.2,0,1.5-0.6c0,0,0-0.1,0.1-0.1c0.5-1.1,1.4-1.9,2.4-2.3c0.7-0.2,1.4-0.3,2.1-0.1
	c1.4,0.3,2.6,1.3,3,2.7c0.4,1.1,0.2,2.4-0.4,3.4c-0.3,0.5-0.2,1.3,0.4,1.6l0.1,0.1c1.4,1,2.7,2.2,3.9,3.4l0.1,0.1
	c0.2,0.3,0.5,0.4,0.7,0.4c0.3,0.1,0.7,0,1-0.2c0.9-0.7,2.1-1,3.3-0.8c2.2,0.5,3.6,2.6,3.1,4.8c-0.2,1.1-1,2.1-2,2.7
	c-0.1,0-0.1,0.1-0.2,0.1c-0.5,0.4-0.7,1-0.4,1.6l0,0.1c0.7,1.6,1.2,3.2,1.6,4.9l0,0.1c0.1,0.6,0.5,1,1.1,1c0.1,0,0.2,0,0.3,0l0.1,0
	c1.1-0.1,2.3,0.2,3.1,1c0.8,0.7,1.3,1.7,1.3,2.8c0.1,1.1-0.3,2.1-1,2.9c-0.7,0.8-1.8,1.3-3,1.3l-0.1,0c-0.2,0-0.5,0-0.7,0.2
	C67.3,40,67.1,40.4,67,40.8L67,40.8z"/>
</svg>
