<!-- Generator: Adobe Illustrator 18.0.0, SVG Export Plug-In  -->
<svg version="1.1"
	 xmlns="http://www.w3.org/2000/svg" xmlns:xlink="http://www.w3.org/1999/xlink" xmlns:a="http://ns.adobe.com/AdobeSVGViewerExtensions/3.0/"
	 x="0px" y="0px" width="105px" height="174.2px" viewBox="0 0 105 174.2" enable-background="new 0 0 105 174.2"
	 xml:space="preserve">
<defs>
	
		<pattern  x="-834.7" y="-450.1" width="12" height="10" patternUnits="userSpaceOnUse" id="New_Pattern_Swatch_5" viewBox="0 -10 12 10" overflow="visible">
		<g>
			<polygon fill="none" points="0,0 12,0 12,-10 0,-10 			"/>
			<path fill="#E56125" d="M1.5-10H0v1.5C0.8-8.5,1.5-9.2,1.5-10z"/>
			<path fill="#E56125" d="M6-8.5c0.8,0,1.5-0.7,1.5-1.5H4.5C4.5-9.2,5.2-8.5,6-8.5z"/>
			<path fill="#E56125" d="M12-8.5V-10h-1.5C10.5-9.2,11.2-8.5,12-8.5z"/>
			<path fill="#E56125" d="M1.5-5c0-0.8-0.7-1.5-1.5-1.5v3.1C0.8-3.5,1.5-4.2,1.5-5z"/>
			<path fill="#E56125" d="M6-6.5C5.2-6.5,4.5-5.8,4.5-5c0,0.8,0.7,1.5,1.5,1.5S7.5-4.2,7.5-5C7.5-5.8,6.8-6.5,6-6.5z"/>
			<path fill="#E56125" d="M10.5-5c0,0.8,0.7,1.5,1.5,1.5v-3.1C11.2-6.5,10.5-5.8,10.5-5z"/>
			<path fill="#E56125" d="M0-1.5V0h1.5C1.5-0.8,0.8-1.5,0-1.5z"/>
			<path fill="#E56125" d="M6-1.5C5.2-1.5,4.5-0.8,4.5,0h3.1C7.5-0.8,6.8-1.5,6-1.5z"/>
			<path fill="#E56125" d="M10.5,0H12v-1.5C11.2-1.5,10.5-0.8,10.5,0z"/>
		</g>
	</pattern>
</defs>
<path fill="url(#New_Pattern_Swatch_5)" stroke="#E56125" stroke-width="1.9388" stroke-miterlimit="10" d="M90.2,36.5
	c0,19.6-15.9,33.6-35.5,33.6s-35.5-14-35.5-33.6S35,1,54.6,1S90.2,16.9,90.2,36.5z"/>
<path fill="none" d="M52.9,93.5c-0.1,0.7,0.1,1.4,0.7,1.9c0.2,0.2,0.3,0.4,0.2,0.6l-0.3,1.4c-0.3,1.7,0.4,3.4,1.9,4.4l0,0
	c0,0,0,0,0,0c1.3,0.8,2.1,2.2,2.4,3.7c0.2,1.5-0.2,3-1.2,4.2c-1.2,1.5-3.2,2.2-5.1,1.8c-0.5-0.1-1-0.3-1.4-0.5
	c-1.4-0.7-2.5-2.1-2.8-3.7c-0.1-0.5-0.7-1.5-1.1-1.8c-0.2,0.4-0.4,1.5-0.3,2.1c0.4,2,1.7,3.7,3.5,4.6c0.5,0.3,1.2,0.5,1.8,0.6
	c2.4,0.5,4.9-0.4,6.4-2.3c1.2-1.5,1.8-3.4,1.5-5.3c-0.3-1.9-1.3-3.5-2.8-4.6c0,0,0,0,0,0l0,0l0,0c-1-0.7-1.6-1.9-1.3-3.1l0.3-1.4
	c0-0.2,0.2-0.5,0.4-0.5c0.7-0.2,1.2-0.8,1.3-1.5c0.2-1.1-0.5-2.1-1.6-2.4C54.1,91.7,53.1,92.4,52.9,93.5z"/>
<g>
	<path fill="#E56125" d="M38.8,153.5c-0.3-0.3-0.7-0.6-1.1-0.8c-0.4-0.2-0.9-0.3-1.4-0.3c-0.5,0-1,0.1-1.4,0.3
		c-0.4,0.2-0.8,0.4-1.1,0.8c-0.3,0.3-0.5,0.7-0.7,1.1c-0.2,0.4-0.3,0.9-0.3,1.4v0c0,0.5,0.1,1,0.3,1.4c0.2,0.4,0.4,0.8,0.7,1.2
		c0.3,0.3,0.7,0.6,1.1,0.8c0.4,0.2,0.9,0.3,1.4,0.3c0.5,0,1-0.1,1.4-0.3c0.4-0.2,0.8-0.4,1.1-0.8c0.3-0.3,0.5-0.7,0.7-1.1
		c0.2-0.4,0.3-0.9,0.3-1.4v0c0-0.5-0.1-1-0.3-1.4C39.3,154.2,39.1,153.8,38.8,153.5z"/>
	<path fill="#E56125" d="M22.8,152.4h-2v3.5h2c0.6,0,1.1-0.2,1.5-0.5c0.4-0.3,0.5-0.7,0.5-1.2v0c0-0.6-0.2-1-0.6-1.3
		C24,152.5,23.5,152.4,22.8,152.4z"/>
	<polygon fill="#E56125" points="45.8,137.2 48.8,137.2 47.3,133.5 	"/>
	<path fill="#E56125" d="M94.4,116H55.3v-2.3c1.1-0.5,2.2-1.2,3-2.2c1.5-1.8,2.1-4.1,1.8-6.3c-0.3-2.2-1.6-4.2-3.4-5.5
		c0,0,0,0-0.1,0l0,0c-0.6-0.4-0.9-1.1-0.8-1.7l0.2-1.1c0.9-0.5,1.6-1.4,1.8-2.4c0.3-1.5-0.6-3-2-3.7V42.9c3-0.6,5.3-3.2,5.3-6.3
		c0-3.6-2.9-6.5-6.5-6.5c-3.6,0-6.5,2.9-6.5,6.5c0,3.2,2.3,5.8,5.3,6.3v47.8c-1.1,0.4-2,1.3-2.3,2.5c-0.2,1,0.1,2.1,0.8,2.9
		l-0.2,1.1c-0.4,2.2,0.5,4.5,2.4,5.8c0,0,0.1,0,0.1,0.1c0.9,0.6,1.6,1.6,1.8,2.8c0.2,1.2-0.1,2.3-0.9,3.2c0,0.1-0.1,0.1-0.1,0.2
		c-0.5-0.9-1.4-1.5-2.4-1.5c-1.3,0-2.4,0.9-2.7,2.1c-0.9-0.6-1.5-1.5-1.7-2.5c-0.1-0.6-1-2.7-2.2-2.9c-0.2,0-0.3,0-0.4,0
		c-1.4,0.3-1.5,2.9-1.3,3.7c0.5,2.4,2,4.4,4.2,5.5c0.4,0.2,0.9,0.4,1.4,0.5v2H11L0,174.2h105L94.4,116z M55.3,110.7
		c0.3-0.2,0.6-0.5,0.9-0.9c1-1.2,1.4-2.7,1.2-4.2c-0.2-1.5-1.1-2.9-2.4-3.7c0,0,0,0,0,0l0,0c-1.4-1-2.2-2.7-1.9-4.4l0.3-1.4
		c0-0.2,0-0.5-0.2-0.6c-0.5-0.5-0.8-1.2-0.7-1.9c0.2-1.1,1.3-1.8,2.4-1.6c1.1,0.2,1.8,1.3,1.6,2.4c-0.1,0.7-0.6,1.3-1.3,1.5
		c-0.2,0.1-0.4,0.3-0.4,0.5l-0.3,1.4c-0.2,1.2,0.3,2.4,1.3,3.1l0,0l0,0c0,0,0,0,0,0c1.5,1.1,2.6,2.7,2.8,4.6
		c0.3,1.9-0.3,3.8-1.5,5.3c-0.5,0.7-1.2,1.2-1.9,1.6V110.7z M49,112.4c-1.8-0.9-3.1-2.6-3.5-4.6c-0.1-0.5,0-1.7,0.3-2.1
		c0.3,0.3,0.9,1.2,1.1,1.8c0.3,1.6,1.4,2.9,2.8,3.7c0.1,0,0.1,0,0.2,0.1v1.5C49.5,112.6,49.3,112.5,49,112.4z M30.8,130.5h8.7v2.3
		h-6.2v2.3h5.4v2.3h-5.4v2.4h6.2v2.3h-8.7V130.5z M27.6,154.3c0,0.7-0.1,1.3-0.4,1.8c-0.2,0.5-0.6,0.9-1,1.3s-0.9,0.6-1.5,0.8
		c-0.6,0.2-1.2,0.3-1.8,0.3H21v3.5h-2.5v-11.5h4.7c0.7,0,1.3,0.1,1.8,0.3c0.5,0.2,1,0.5,1.4,0.8c0.4,0.4,0.7,0.8,0.9,1.3
		C27.5,153.1,27.6,153.6,27.6,154.3L27.6,154.3z M27.6,142h-2.5v-4.6h-4.7v4.6h-2.5v-11.5h2.5v4.6h4.7v-4.6h2.5V142z M42.4,156
		c0,0.8-0.2,1.6-0.5,2.3c-0.3,0.7-0.7,1.3-1.3,1.9c-0.5,0.5-1.2,1-1.9,1.3c-0.8,0.3-1.6,0.5-2.5,0.5c-0.9,0-1.7-0.2-2.4-0.5
		c-0.7-0.3-1.4-0.7-1.9-1.3c-0.5-0.5-1-1.2-1.3-1.9c-0.3-0.7-0.5-1.5-0.5-2.3v0c0-0.8,0.2-1.6,0.5-2.3c0.3-0.7,0.7-1.3,1.3-1.9
		c0.5-0.5,1.2-1,1.9-1.3c0.8-0.3,1.6-0.5,2.5-0.5c0.9,0,1.7,0.2,2.4,0.5c0.7,0.3,1.4,0.7,1.9,1.3c0.5,0.5,1,1.2,1.3,1.9
		C42.3,154.4,42.4,155.1,42.4,156L42.4,156z M43.8,142h-2.6l4.9-11.6h2.3l4.9,11.6h-2.6l-1.1-2.6h-4.9L43.8,142z M54.2,161.8h-8.3
		v-11.5h2.5v9.2h5.7V161.8z M77.3,130.5h2.5v4.6h4.7v-4.6H87V142h-2.5v-4.6h-4.7v4.6h-2.5V130.5z M55.6,130.5h2.5v9.2h5.7v2.3h-8.3
		V130.5z M60,161.8h-2.5v-11.5H60V161.8z M73.3,160.8c-0.3,0.3-0.7,0.5-1,0.7s-0.8,0.3-1.2,0.4c-0.4,0.1-1,0.1-1.5,0.1
		c-0.8,0-1.6-0.2-2.4-0.5c-0.7-0.3-1.3-0.7-1.9-1.3c-0.5-0.5-0.9-1.2-1.2-1.9c-0.3-0.7-0.4-1.5-0.4-2.3v0c0-0.8,0.1-1.6,0.4-2.3
		c0.3-0.7,0.7-1.3,1.2-1.9c0.5-0.5,1.2-1,1.9-1.3c0.7-0.3,1.5-0.5,2.4-0.5c0.5,0,1,0,1.5,0.1c0.4,0.1,0.8,0.2,1.2,0.4
		c0.4,0.2,0.7,0.3,1,0.6c0.3,0.2,0.6,0.5,0.9,0.7l-1.6,1.9c-0.4-0.4-0.9-0.7-1.4-1c-0.5-0.2-1-0.3-1.6-0.3c-0.5,0-0.9,0.1-1.3,0.3
		c-0.4,0.2-0.8,0.4-1.1,0.8c-0.3,0.3-0.5,0.7-0.7,1.1c-0.2,0.4-0.2,0.9-0.2,1.4v0c0,0.5,0.1,1,0.2,1.4c0.2,0.4,0.4,0.8,0.7,1.2
		c0.3,0.3,0.6,0.6,1.1,0.8c0.4,0.2,0.9,0.3,1.4,0.3c0.7,0,1.2-0.1,1.7-0.4c0.5-0.2,0.9-0.6,1.4-1l1.6,1.6
		C73.9,160.2,73.6,160.5,73.3,160.8z M74.9,132.8h-3.5v9.2h-2.5v-9.2h-3.5v-2.3h9.5V132.8z M83.2,157.2v4.6h-2.5v-4.5l-4.4-7h3
		l2.7,4.6l2.8-4.6h2.9L83.2,157.2z"/>
	<circle fill="#E56125" cx="54.4" cy="93.9" r="0.7"/>
</g>
</svg>
