<!-- Generator: Adobe Illustrator 18.0.0, SVG Export Plug-In  -->
<svg version="1.1"
	 xmlns="http://www.w3.org/2000/svg" xmlns:xlink="http://www.w3.org/1999/xlink" xmlns:a="http://ns.adobe.com/AdobeSVGViewerExtensions/3.0/"
	 x="0px" y="0px" width="129.4px" height="129.4px" viewBox="0 0 129.4 129.4" enable-background="new 0 0 129.4 129.4"
	 xml:space="preserve">
<defs>
</defs>
<path fill="#E56125" d="M129.4,59.1c-0.2-2.8-1.6-5.4-3.8-7.3c-1.7-1.4-3.7-2.3-5.9-2.5l-1.3-0.1L118,48c-0.5-1.6-1-3.1-1.7-4.6
	l-0.5-1.2l0.9-0.9c1.5-1.6,2.6-3.5,2.9-5.7c0.5-2.8-0.1-5.7-1.8-8c-1.6-2.3-4.1-3.9-6.9-4.4c-2.1-0.4-4.4-0.1-6.3,0.8l-1.2,0.6
	l-1-0.9c-1.2-1.1-2.4-2.2-3.7-3.1l-1.1-0.8l0.3-1.3c0.6-2.1,0.5-4.3-0.3-6.4c-1-2.7-2.9-4.8-5.5-6c-2.6-1.2-5.5-1.3-8.2-0.4
	c-2.1,0.7-3.8,2.1-5.1,3.9l-0.8,1.1l-1.3-0.3c-1.6-0.3-3.2-0.6-4.8-0.8l-1.3-0.2l-0.4-1.3c-0.6-2.1-1.8-4-3.4-5.4
	c-2.2-1.8-5-2.7-7.8-2.5c-2.9,0.2-5.4,1.6-7.3,3.8c-1.4,1.7-2.3,3.7-2.5,5.9l-0.1,1.3l-1.3,0.4c-1.5,0.5-3.1,1-4.6,1.7l-1.2,0.5
	l-0.9-0.9c-1.6-1.6-3.5-2.6-5.7-3c-0.9-0.2-1.9-0.2-2.8-0.1c-4.8,0.4-8.8,4-9.6,8.8c-0.4,2.2-0.1,4.4,0.8,6.4l0.6,1.2l-0.9,1
	c-1.1,1.2-2.1,2.4-3.1,3.7l-0.8,1.1l-1.3-0.3c-2.1-0.6-4.4-0.5-6.4,0.3c-5.5,2-8.4,8.2-6.4,13.7c0.8,2.1,2.1,3.8,3.9,5.1l1.1,0.8
	l-0.3,1.3c-0.3,1.6-0.6,3.2-0.9,4.8l-0.2,1.3l-1.3,0.3c-2.1,0.6-4,1.8-5.4,3.5C-1.3,67-0.7,73.8,3.8,77.6c1.7,1.4,3.7,2.3,5.9,2.5
	l1.3,0.1l0.4,1.3c0.5,1.6,1,3.1,1.7,4.6l0.5,1.2l-0.9,0.9c-1.6,1.6-2.6,3.5-3,5.7c-1,5.8,2.9,11.4,8.7,12.4c2.2,0.4,4.4,0.1,6.4-0.8
	l1.2-0.6l1,0.9c1.2,1.1,2.4,2.2,3.7,3.1l1.1,0.8l-0.3,1.3c-0.6,2.1-0.5,4.3,0.3,6.4c1.7,4.5,6.2,7.4,11,7c0.9-0.1,1.8-0.3,2.7-0.6
	c2.1-0.8,3.8-2.1,5.1-3.9l0.8-1.1l1.3,0.3c1.6,0.4,3.2,0.6,4.8,0.9l1.3,0.2l0.3,1.3c0.6,2.1,1.8,4,3.4,5.4c2.2,1.8,5,2.7,7.8,2.5
	c2.8-0.2,5.4-1.6,7.3-3.8c1.4-1.7,2.3-3.7,2.5-5.9l0.1-1.3l1.3-0.4c1.5-0.5,3.1-1,4.6-1.7l1.2-0.5l1,0.9c1.6,1.6,3.5,2.6,5.7,3
	c2.8,0.5,5.7-0.1,8-1.8c2.3-1.6,3.9-4.1,4.4-6.9c0.4-2.2,0.1-4.4-0.8-6.3l-0.6-1.2l0.9-1c1.1-1.2,2.2-2.5,3.1-3.7l0.8-1.1l1.3,0.3
	c2.1,0.6,4.3,0.5,6.4-0.3c2.7-1,4.8-2.9,6-5.5c1.2-2.6,1.3-5.5,0.4-8.2c-0.8-2.1-2.1-3.8-3.9-5.1l-1.1-0.8l0.3-1.3
	c0.4-1.6,0.6-3.2,0.8-4.8l0.2-1.3l1.3-0.3c2.1-0.6,4-1.8,5.4-3.4C128.8,64.7,129.6,61.9,129.4,59.1z M98.3,92.9
	c-7.5,9-18.1,14.5-29.8,15.5c-11.7,1-23.1-2.6-32-10.1C27.5,90.8,22,80.2,21,68.5c-1-11.7,2.6-23,10.1-32c7.5-9,18.1-14.5,29.8-15.5
	c11.7-1,23.1,2.6,32,10.1c9,7.5,14.5,18.1,15.5,29.8C109.4,72.6,105.9,84,98.3,92.9z"/>
<path fill="#E56125" d="M71.6,56.1c-2.2-1.7-4.9-2.5-7.6-2.2c-2.8,0.3-5.2,1.7-7,3.9c-3.5,4.5-2.8,11,1.7,14.6
	c2.2,1.7,4.9,2.5,7.6,2.2c2.8-0.3,5.2-1.7,6.9-3.9c1.7-2.2,2.5-4.9,2.2-7.6C75.2,60.3,73.8,57.8,71.6,56.1z M70.9,68.7
	c-1.2,1.5-2.9,2.4-4.9,2.7c-1.9,0.2-3.9-0.3-5.4-1.5c-3.1-2.5-3.7-7.1-1.2-10.2c1.2-1.5,2.9-2.5,4.9-2.7c1.9-0.2,3.8,0.3,5.4,1.5
	C72.9,61,73.4,65.6,70.9,68.7z"/>
</svg>
