<!-- Generator: Adobe Illustrator 18.0.0, SVG Export Plug-In  -->
<svg version="1.1"
	 xmlns="http://www.w3.org/2000/svg" xmlns:xlink="http://www.w3.org/1999/xlink" xmlns:a="http://ns.adobe.com/AdobeSVGViewerExtensions/3.0/"
	 x="0px" y="0px" width="96.7px" height="96.7px" viewBox="0 0 96.7 96.7" enable-background="new 0 0 96.7 96.7"
	 xml:space="preserve">
<defs>
	
		<pattern  x="-1437.3" y="-354.9" width="12" height="10" patternUnits="userSpaceOnUse" id="New_Pattern_Swatch_5" viewBox="0 -10 12 10" overflow="visible">
		<g>
			<polygon fill="none" points="0,-10 12,-10 12,0 0,0 			"/>
			<path fill="#E56125" d="M1.5-10H0v1.5C0.8-8.5,1.5-9.2,1.5-10z"/>
			<path fill="#E56125" d="M6-8.5c0.8,0,1.5-0.7,1.5-1.5H4.5C4.5-9.2,5.2-8.5,6-8.5z"/>
			<path fill="#E56125" d="M12-8.5V-10h-1.5C10.5-9.2,11.2-8.5,12-8.5z"/>
			<path fill="#E56125" d="M1.5-5c0-0.8-0.7-1.5-1.5-1.5v3.1C0.8-3.5,1.5-4.2,1.5-5z"/>
			<path fill="#E56125" d="M6-6.5C5.2-6.5,4.5-5.8,4.5-5c0,0.8,0.7,1.5,1.5,1.5S7.5-4.2,7.5-5C7.5-5.8,6.8-6.5,6-6.5z"/>
			<path fill="#E56125" d="M10.5-5c0,0.8,0.7,1.5,1.5,1.5v-3.1C11.2-6.5,10.5-5.8,10.5-5z"/>
			<path fill="#E56125" d="M0-1.5V0h1.5C1.5-0.8,0.8-1.5,0-1.5z"/>
			<path fill="#E56125" d="M6-1.5C5.2-1.5,4.5-0.8,4.5,0h3.1C7.5-0.8,6.8-1.5,6-1.5z"/>
			<path fill="#E56125" d="M10.5,0H12v-1.5C11.2-1.5,10.5-0.8,10.5,0z"/>
		</g>
	</pattern>
</defs>
<path fill="#E56125" d="M52.1,42.1c-1.1-0.7-2.4-1-3.7-1c-0.7,0-1.3,0.1-1.9,0.3c-1.9,0.5-3.5,1.7-4.5,3.5
	c-2.1,3.6-0.8,8.1,2.7,10.2c1.7,1,3.8,1.3,5.6,0.7c1.9-0.5,3.5-1.8,4.5-3.5c1-1.7,1.3-3.7,0.7-5.7C55,44.7,53.8,43.1,52.1,42.1z
	 M52.4,50.9c-0.8,1.4-2.4,2.3-4,2.3c-0.8,0-1.6-0.2-2.3-0.6c-2.2-1.3-3-4.1-1.7-6.4c0.6-1.1,1.6-1.9,2.8-2.2
	c1.1-0.3,2.5-0.2,3.6,0.5c1.1,0.6,1.8,1.6,2.2,2.8C53.2,48.6,53,49.9,52.4,50.9z"/>
<path fill="url(#New_Pattern_Swatch_5)" stroke="#E56125" stroke-width="2.1898" stroke-miterlimit="10" d="M5.8,68.9l7.9-0.4
	c1.5,2.6,3.5,5,5.5,7.3l-2.7,7.5l5.2,4.1l6.7-4.5c2.7,1.4,5.4,2.6,8.4,3.6l1.5,8.1l6.7,1l3.7-7.3c3.2-0.1,6.1-0.4,9.1-1l5.1,6.2
	l6.1-2.5l-0.4-7.9c2.6-1.5,5-3.5,7.3-5.5l7.5,2.7l4.1-5.2l-4.5-6.7c1.4-2.7,2.6-5.4,3.6-8.4l8.1-1.5l1-6.7l-7.3-3.7
	c-0.1-3.2-0.4-6.1-1-9.1l6.2-5.1l-2.5-6.1l-7.9,0.4c-1.5-2.6-3.5-5-5.5-7.3l2.7-7.5l-5.2-4.1l-6.7,4.5c-2.7-1.4-5.4-2.6-8.4-3.6
	l-1.5-8.1l-6.7-1l-3.7,7.3c-3.2,0.1-6.1,0.4-9.1,1l-5.1-6.2l-6.1,2.5l0.4,7.9c-2.6,1.5-5,3.5-7.3,5.5l-7.5-2.7l-4.1,5.2l4.5,6.7
	c-1.4,2.7-2.6,5.4-3.6,8.4l-8.1,1.5l-1,6.7l7.3,3.7c0.1,3.2,0.4,6.1,1,9.1l-6.2,5.1L5.8,68.9z M28.6,45.7
	C30.1,35,40.4,27.3,51.2,28.9S69.6,40.7,68,51.5S56.5,69.9,45.5,68.3C34.7,66.8,27,56.5,28.6,45.7z"/>
</svg>
